<svg xmlns="http://www.w3.org/2000/svg" viewBox="0 0 200 200">
  <defs>
    <filter id="shadow" x="-20%" y="-20%" width="140%" height="140%">
      <feDropShadow dx="0" dy="4" stdDeviation="4" flood-opacity="0.2"/>
    </filter>
  </defs>

  <!-- Antenna -->
  <line x1="100" y1="60" x2="100" y2="30" stroke="#22c55e" stroke-width="6" stroke-linecap="round"/>
  <circle cx="100" cy="25" r="8" fill="#f97316" />

  <!-- Arms (waving) -->
  <path d="M40 120 Q 20 110 30 90" stroke="#22c55e" stroke-width="12" fill="none" stroke-linecap="round" />
  <path d="M160 120 Q 180 110 170 90" stroke="#22c55e" stroke-width="12" fill="none" stroke-linecap="round" />

  <!-- Bin Body -->
  <rect x="50" y="70" width="100" height="110" rx="15" fill="#22c55e" filter="url(#shadow)" />
  
  <!-- Bin Lid/Hat -->
  <rect x="40" y="60" width="120" height="20" rx="10" fill="#15803d" />
  
  <!-- Face Plate -->
  <rect x="65" y="90" width="70" height="35" rx="17.5" fill="#dcfce7" />
  
  <!-- Eyes -->
  <circle cx="85" cy="107.5" r="6" fill="#15803d" />
  <circle cx="115" cy="107.5" r="6" fill="#15803d" />
  
  <!-- Cheeks -->
  <circle cx="75" cy="115" r="3" fill="#fca5a5" opacity="0.6" />
  <circle cx="125" cy="115" r="3" fill="#fca5a5" opacity="0.6" />

  <!-- Recycling Symbol on Chest -->
  <g transform="translate(80, 135) scale(0.32)">
    <path fill="#ffffff" d="M50.43.09,77.25,0C82.1,0,85.4.86,88.58,5l7.57,13.52,7.68-4.74L90.6,36.93l-26.74-.1L72,32.09,58.26,8.77A25.12,25.12,0,0,0,54.12,3,22.45,22.45,0,0,0,50.43.09ZM56.9,112.26l-25.73,0c-5.69-.88-9.34-4-10.43-8.26-.93-3.71,0-5.42,1.6-8.61,1.93-3.81,4.2-7.49,6.38-11.2l28.49.1-.31,27.92Zm-41-10L2.43,79.06C0,74.87-.91,71.57,1.12,66.72L9.05,53.4,1.11,49.13,27.73,49,41,72.24l-8.19-4.71L19.52,91.12a24.94,24.94,0,0,0-3,6.49,22.15,22.15,0,0,0-.64,4.63Zm92.91-60.6,12.91,22.25C123.82,69.26,123,74,119.8,77.05c-2.74,2.67-4.69,2.73-8.26,2.93-4.26.23-8.58.1-12.89.07L84.49,55.33l24.34-13.69Zm11.81,40.5-13.33,23.27c-2.41,4.21-4.82,6.64-10,7.3l-15.5-.21.27,9-13.4-23L82.11,75.4l0,9.45,27.08-.27a25,25,0,0,0,7.1-.68,22.2,22.2,0,0,0,4.33-1.76ZM21.26,30.57,34.08,8.27c3.6-4.5,8.1-6.11,12.36-4.91,3.68,1.05,4.71,2.7,6.67,5.69,2.33,3.57,4.38,7.38,6.51,11.13L45.28,44.8l-24-14.23Z"/>
  </g>
</svg>
